<svg width="350" height="350" viewBox="0 0 350 350" fill="none" xmlns="http://www.w3.org/2000/svg">
<circle cx="175" cy="175" r="175" fill="white" fill-opacity="0.3"/>
<circle cx="175" cy="175" r="125" fill="#F8F8F8"/>
<path d="M148.321 227.714C155.57 227.714 161.5 220.937 161.5 212.653V137.347C161.5 129.063 155.57 122.286 148.321 122.286C141.073 122.286 135.143 129.063 135.143 137.347V212.653C135.143 220.937 141.073 227.714 148.321 227.714ZM187.857 137.347V212.653C187.857 220.937 193.787 227.714 201.036 227.714C208.284 227.714 214.214 220.937 214.214 212.653V137.347C214.214 129.063 208.284 122.286 201.036 122.286C193.787 122.286 187.857 129.063 187.857 137.347Z" fill="black"/>
</svg>
