<svg width="100" height="100" viewBox="0 0 100 100" fill="none" xmlns="http://www.w3.org/2000/svg">
<path d="M12.5 54.1666H16.6667V83.3333C16.6667 87.9291 20.4042 91.6666 25 91.6666H75C79.5958 91.6666 83.3333 87.9291 83.3333 83.3333V54.1666H87.5C88.324 54.1665 89.1294 53.922 89.8144 53.4641C90.4995 53.0063 91.0334 52.3556 91.3487 51.5944C91.6639 50.8331 91.7465 49.9955 91.5858 49.1873C91.4251 48.3792 91.0284 47.6368 90.4458 47.0541L52.9458 9.55413C52.5592 9.16686 52.1 8.85961 51.5946 8.64999C51.0891 8.44036 50.5472 8.33246 50 8.33246C49.4528 8.33246 48.9109 8.44036 48.4055 8.64999C47.9 8.85961 47.4408 9.16686 47.0542 9.55413L9.55417 47.0541C8.97163 47.6368 8.57494 48.3792 8.41424 49.1873C8.25354 49.9955 8.33606 50.8331 8.65135 51.5944C8.96664 52.3556 9.50056 53.0063 10.1856 53.4641C10.8706 53.922 11.676 54.1665 12.5 54.1666ZM41.6667 83.3333V62.5H58.3333V83.3333H41.6667ZM50 18.3916L75 43.3916V62.5L75.0042 83.3333H66.6667V62.5C66.6667 57.9041 62.9292 54.1666 58.3333 54.1666H41.6667C37.0708 54.1666 33.3333 57.9041 33.3333 62.5V83.3333H25V43.3916L50 18.3916Z" fill="black"/>
</svg>
